<?xml version="1.0" standalone="no"?>
<!DOCTYPE svg PUBLIC "-//W3C//DTD SVG 20010904//EN"
 "http://www.w3.org/TR/2001/REC-SVG-20010904/DTD/svg10.dtd">
<svg version="1.0" xmlns="http://www.w3.org/2000/svg"
 width="557.000000pt" height="815.000000pt" viewBox="0 0 557.000000 815.000000"
 preserveAspectRatio="xMidYMid meet">

<g transform="translate(0.000000,815.000000) scale(0.100000,-0.100000)"
fill="#000000" stroke="none">
<path d="M2640 7962 c-30 -2 -59 -7 -64 -13 -6 -5 -26 -9 -45 -9 -20 0 -56 -9
-80 -20 -24 -11 -57 -20 -73 -20 -16 0 -43 -9 -59 -21 -17 -11 -55 -35 -87
-51 -31 -17 -65 -37 -75 -46 -9 -8 -25 -20 -36 -26 -10 -6 -37 -23 -59 -38
-23 -16 -51 -28 -61 -28 -30 0 -91 -32 -91 -47 0 -7 -6 -13 -14 -13 -7 0 -19
-6 -25 -14 -9 -11 -20 -12 -43 -5 -36 10 -48 5 -48 -21 0 -20 -58 -70 -81 -70
-24 0 -108 -80 -165 -157 -30 -40 -58 -73 -64 -73 -5 0 -12 -17 -16 -37 -4
-21 -12 -49 -19 -63 -7 -14 -16 -43 -19 -64 -4 -22 -26 -78 -49 -125 -39 -81
-42 -92 -43 -176 -1 -87 -25 -261 -44 -318 -5 -15 -9 -146 -10 -292 0 -230 2
-265 15 -265 8 0 15 -4 15 -10 0 -5 -7 -10 -16 -10 -8 0 -12 -4 -9 -10 3 -5
23 -10 44 -10 45 0 75 -19 69 -46 -2 -15 -13 -20 -56 -22 l-53 -3 7 -33 c3
-19 7 -53 9 -77 2 -24 4 -45 4 -46 1 -2 10 6 21 17 26 26 36 20 52 -32 10 -33
13 -37 19 -22 4 11 8 39 8 64 1 25 7 55 15 66 8 11 17 41 21 66 7 44 10 48 49
62 51 20 157 36 216 35 l45 -1 -42 -11 c-45 -10 -47 -14 -46 -89 0 -10 -6 -18
-13 -18 -6 0 -15 -10 -19 -22 -8 -25 -16 -108 -10 -108 6 0 55 89 55 102 1 35
142 88 180 68 17 -9 19 -14 10 -25 -9 -11 -3 -15 30 -22 44 -8 55 -26 20 -31
-34 -6 -22 -22 16 -22 57 0 36 -22 -44 -46 -40 -12 -100 -38 -134 -57 -35 -19
-87 -47 -115 -62 -29 -15 -53 -33 -53 -40 0 -18 46 -25 62 -9 7 8 38 19 68 25
49 9 60 8 102 -11 26 -11 57 -34 68 -51 24 -33 20 -65 -6 -55 -19 7 -44 -10
-44 -29 0 -18 79 -55 117 -55 17 0 36 -7 44 -16 13 -16 30 -16 114 4 59 14
201 96 213 125 6 13 22 7 16 -6 -3 -8 2 -19 10 -26 13 -11 20 -5 48 35 56 80
81 106 115 120 48 20 69 17 106 -16 l34 -29 6 -158 c4 -87 11 -171 16 -188 22
-66 50 -140 50 -132 1 4 12 0 26 -9 20 -13 22 -19 12 -35 -6 -10 -22 -19 -35
-19 -15 0 -31 -13 -50 -39 -22 -33 -35 -41 -72 -48 -25 -4 -54 -7 -65 -5 -30
4 -77 -19 -71 -34 7 -18 3 -17 -41 1 -45 19 -94 8 -134 -31 -27 -25 -27 -28
-14 -55 17 -33 86 -71 93 -51 3 9 15 10 38 6 22 -4 34 -2 34 5 0 17 61 13 75
-6 9 -12 31 -17 96 -18 46 -2 103 -8 126 -14 40 -11 113 -68 113 -88 0 -23
121 -103 157 -103 15 0 16 -2 3 -10 -13 -9 -13 -11 0 -20 8 -5 21 -10 28 -10
6 0 12 -4 12 -10 0 -5 -5 -10 -11 -10 -5 0 -8 -4 -5 -8 6 -10 -40 -10 -50 1
-4 4 -16 7 -26 7 -10 0 -29 6 -41 14 -12 7 -45 17 -74 20 -42 5 -64 2 -120
-20 -71 -27 -124 -32 -258 -22 -38 3 -76 2 -85 -3 -8 -4 -44 -17 -80 -28 -36
-11 -107 -35 -158 -52 -78 -26 -97 -30 -118 -20 -40 18 -51 13 -59 -25 -5 -27
-2 -41 9 -53 15 -14 16 -14 16 2 0 24 23 21 66 -8 30 -21 49 -25 105 -25 69 0
165 -16 184 -30 6 -4 24 -11 41 -14 18 -4 52 -20 76 -35 24 -15 55 -27 70 -27
15 1 24 -2 22 -6 -3 -4 6 -8 20 -8 14 0 29 6 33 14 6 11 18 12 51 6 23 -4 45
-4 48 1 7 12 34 -1 34 -17 0 -19 -44 -28 -69 -14 -23 12 -65 8 -121 -12 -56
-20 -107 -28 -159 -24 -54 5 -59 4 -54 -14 3 -10 18 -24 34 -30 15 -7 34 -18
40 -26 6 -8 28 -14 48 -14 28 0 44 -7 66 -30 22 -23 38 -30 66 -30 24 0 39 5
43 15 3 9 18 15 40 15 19 0 37 4 41 9 3 6 35 9 71 8 56 -2 68 1 82 19 12 14
24 18 42 14 30 -8 62 -1 54 11 -3 5 1 9 8 10 43 2 78 21 78 41 0 13 26 38 39
38 6 0 29 18 53 41 24 22 55 45 70 51 15 5 30 19 34 30 7 23 13 19 19 -12 3
-13 10 -27 17 -32 10 -6 10 -8 0 -8 -9 0 -12 -10 -10 -27 2 -20 9 -29 26 -31
18 -3 22 -10 22 -42 0 -32 -4 -39 -26 -44 -24 -6 -73 -52 -74 -68 0 -5 9 -8
20 -8 11 0 20 -4 20 -10 0 -5 -6 -10 -12 -10 -10 0 -9 -3 1 -9 17 -11 6 -65
-20 -103 -11 -14 -19 -31 -19 -38 0 -6 -4 -9 -9 -6 -5 3 -11 -3 -14 -14 -4
-17 -11 -19 -47 -14 -40 6 -43 5 -37 -15 3 -14 0 -21 -10 -21 -17 0 -73 -53
-73 -69 0 -6 6 -11 12 -11 7 0 3 -7 -9 -15 -12 -8 -28 -13 -35 -10 -9 4 -19
-4 -26 -17 -6 -13 -11 -17 -11 -10 -1 19 -29 14 -48 -8 -13 -14 -19 -16 -25
-7 -6 9 -8 9 -8 0 0 -7 -4 -13 -10 -13 -5 0 -10 7 -10 15 0 22 -29 18 -89 -10
-29 -14 -60 -25 -69 -24 -10 2 -35 -3 -56 -9 -22 -6 -43 -9 -48 -6 -4 3 -16
-2 -25 -11 -13 -13 -25 -15 -52 -10 -57 12 -123 6 -163 -15 -30 -16 -43 -17
-68 -9 -17 6 -37 8 -46 5 -9 -4 -40 4 -68 18 -28 13 -68 26 -88 30 -31 6 -39
3 -52 -16 -9 -12 -16 -26 -16 -29 0 -4 27 -36 60 -71 33 -34 74 -84 92 -110
17 -27 38 -48 45 -48 8 0 26 -12 41 -26 15 -14 56 -39 92 -56 36 -17 72 -36
80 -43 10 -8 76 -17 184 -23 93 -6 174 -16 179 -21 6 -6 21 -11 32 -11 18 0
22 -6 23 -32 0 -18 6 -34 11 -36 14 -5 15 -82 1 -82 -5 0 -7 -7 -4 -15 4 -8 1
-15 -5 -15 -6 0 -11 -7 -11 -15 0 -11 11 -15 40 -15 22 0 40 -5 40 -11 0 -13
-58 -69 -71 -69 -5 0 -9 -7 -9 -15 0 -9 -7 -18 -16 -22 -8 -3 -13 -12 -10 -20
4 -8 1 -11 -5 -7 -6 3 -26 -10 -44 -30 -30 -34 -33 -35 -38 -16 -6 22 -28 19
-59 -8 -27 -23 -22 -42 10 -42 21 0 28 -5 29 -20 1 -16 -4 -20 -27 -20 -23 0
-30 5 -35 29 -6 28 -6 28 -55 19 -35 -6 -56 -5 -72 3 -29 16 -114 12 -152 -7
-33 -16 -58 -18 -72 -6 -5 5 -42 15 -81 21 -40 7 -73 17 -73 22 0 5 5 9 11 9
5 0 7 5 4 10 -4 7 -13 6 -27 -1 -15 -8 -19 -8 -14 0 4 6 0 11 -9 11 -19 0
-105 80 -105 97 0 7 -4 13 -8 13 -10 0 -72 86 -72 99 0 5 -3 11 -8 13 -10 4
-92 139 -130 213 -75 147 -102 241 -109 377 -7 125 -12 138 -45 116 -35 -23
-70 -114 -83 -213 -26 -208 -26 -205 -3 -236 20 -27 19 -44 -3 -44 -16 0 -18
-124 -2 -136 7 -7 13 -26 13 -43 0 -20 7 -36 20 -44 28 -17 25 -27 -16 -51
-42 -25 -44 -25 -44 -7 0 7 -7 19 -15 26 -9 7 -13 21 -10 31 4 11 -2 23 -17
33 -16 12 -22 25 -21 52 1 23 -4 37 -14 41 -13 5 -14 18 -8 77 3 38 13 82 21
98 20 38 19 82 -2 74 -9 -3 -28 -9 -42 -12 -60 -13 -83 -27 -81 -48 3 -46 1
-48 -42 -41 -29 5 -40 4 -35 -4 4 -6 14 -11 22 -11 22 0 17 -16 -12 -35 -18
-12 -24 -23 -21 -37 3 -11 2 -31 -3 -44 -8 -20 -4 -26 24 -44 19 -11 37 -27
40 -36 5 -13 -1 -15 -32 -12 -25 2 -36 -1 -35 -9 2 -7 -1 -13 -5 -13 -5 0 -9
-6 -10 -12 -8 -94 -31 -129 -102 -157 -19 -8 -44 -22 -55 -32 -11 -9 -37 -24
-58 -33 -47 -19 -58 -46 -46 -114 7 -34 6 -78 0 -124 -8 -56 -7 -79 4 -105 8
-19 11 -47 8 -68 -6 -34 -6 -35 -20 -15 -8 12 -13 30 -10 40 5 21 -7 89 -24
132 l-11 26 -21 -21 c-22 -22 -23 -24 -25 -69 -1 -16 -8 -28 -16 -28 -17 0
-30 -71 -14 -81 7 -4 3 -11 -11 -18 -12 -7 -21 -21 -21 -36 0 -17 -7 -25 -23
-28 -12 -2 -7 -4 11 -3 27 2 31 -1 26 -16 -4 -15 0 -18 25 -18 65 0 171 -37
171 -60 0 -16 -34 -20 -50 -5 -19 17 -60 19 -109 5 -38 -11 -75 -45 -66 -60 4
-6 -1 -13 -9 -16 -8 -3 -20 -20 -26 -38 -6 -18 -24 -46 -40 -61 -17 -16 -30
-35 -30 -42 0 -7 -5 -13 -11 -13 -17 0 -42 -31 -45 -55 -3 -30 -38 -65 -74
-75 -35 -10 -57 2 -35 20 8 7 15 21 15 31 0 10 5 21 11 24 6 4 8 13 5 20 -6
17 14 85 26 85 4 0 8 9 8 19 0 15 -10 21 -41 26 -55 9 -183 75 -243 125 -26
22 -45 40 -42 40 4 0 46 -20 94 -44 100 -51 148 -66 214 -66 42 0 48 3 62 32
9 17 16 39 16 49 0 9 4 19 10 21 5 2 12 32 16 68 8 78 45 170 70 170 14 0 16
8 11 54 -5 48 -3 56 19 75 14 12 23 25 20 30 -3 4 6 14 19 21 l25 13 -20 22
c-12 12 -20 29 -18 36 2 9 -5 13 -19 11 -16 -2 -23 2 -23 14 0 14 -7 15 -44
10 -26 -4 -47 -3 -50 3 -8 12 40 46 79 55 16 4 65 25 110 47 83 40 211 145
204 167 -2 7 -23 -5 -51 -30 -25 -24 -54 -49 -63 -57 -24 -19 -227 -121 -242
-121 -7 0 -16 -6 -20 -13 -4 -7 -24 -20 -43 -29 -19 -9 -52 -33 -73 -52 -34
-34 -79 -47 -91 -28 -2 4 -7 24 -11 45 -6 29 -4 37 8 37 8 0 20 6 26 14 7 8
21 13 32 11 26 -5 25 25 -1 32 -33 9 -23 37 25 67 25 16 45 33 45 37 0 14 -48
22 -96 16 -24 -2 -47 -1 -50 4 -20 32 -284 -23 -284 -59 0 -4 -21 -14 -47 -21
-68 -20 -93 -32 -93 -47 0 -9 10 -10 37 -3 21 4 39 6 42 4 5 -6 -46 -25 -65
-25 -12 0 -14 -27 -14 -157 0 -136 2 -155 13 -133 24 45 49 80 58 80 21 0 -5
-109 -41 -172 -11 -19 3 -30 53 -42 25 -6 87 -60 87 -76 0 -4 -23 -1 -52 6
-29 8 -67 14 -85 14 l-33 0 0 -489 c0 -422 2 -490 15 -501 19 -16 19 -30 0
-30 -13 0 -15 -74 -15 -610 l0 -610 2785 0 2785 0 0 1323 0 1323 -67 44 c-38
25 -70 47 -73 50 -20 20 -88 58 -240 132 -96 47 -197 99 -224 117 -57 35 -95
39 -171 15 -27 -9 -59 -17 -71 -19 -11 -2 -55 -12 -97 -24 l-77 -21 -37 21
c-21 12 -50 30 -65 40 -15 11 -57 34 -95 51 -37 17 -70 35 -73 39 -19 25 -310
171 -349 174 -17 1 -36 7 -43 13 -7 5 -26 12 -42 14 -52 6 -64 32 -121 278
-19 81 -56 150 -81 150 -14 0 -15 7 -10 38 3 20 9 68 12 105 4 37 11 70 15 73
5 3 9 14 9 24 0 19 25 80 58 145 37 71 55 115 72 170 6 22 15 52 20 67 4 15 6
37 3 48 -4 13 1 26 12 34 12 8 16 19 12 30 -4 11 3 32 18 54 14 20 25 50 25
67 0 46 15 55 80 48 46 -4 64 -1 99 16 23 12 46 32 50 44 9 23 3 46 -8 29 -4
-6 -11 -4 -19 4 -10 12 -10 14 3 14 8 0 15 6 15 13 0 7 8 31 19 53 10 21 21
59 25 83 10 67 60 240 85 296 34 75 51 135 51 181 0 60 -28 211 -45 245 -23
43 -68 63 -132 56 l-53 -6 28 52 c25 48 27 62 27 172 1 66 5 235 9 375 7 215
6 268 -7 335 -9 44 -19 122 -22 172 -7 111 -22 157 -109 333 -91 186 -202 350
-236 350 -11 0 -22 5 -25 10 -3 6 -15 10 -25 10 -18 0 -70 56 -70 76 0 20 -65
76 -122 105 -33 17 -72 42 -86 56 -14 14 -40 31 -57 39 -18 7 -46 24 -61 36
-66 53 -124 88 -144 88 -12 0 -36 6 -53 14 -96 41 -118 48 -153 48 -21 0 -66
8 -99 18 -66 20 -132 27 -215 22z m-470 -477 c7 -8 26 -15 42 -15 22 0 31 -6
35 -20 4 -15 11 -19 24 -15 10 4 27 2 36 -4 10 -6 14 -11 9 -11 -5 0 16 -27
47 -59 32 -33 57 -64 57 -70 0 -6 7 -11 15 -11 8 0 20 -9 27 -20 7 -11 17 -20
23 -20 5 0 28 -17 50 -36 44 -40 73 -54 112 -54 15 0 33 -10 45 -26 11 -14 27
-23 34 -20 8 3 14 2 14 -2 0 -4 22 -21 50 -37 27 -17 50 -33 50 -37 0 -5 7 -8
15 -8 8 0 15 -9 15 -19 0 -11 5 -23 11 -26 5 -4 14 -18 19 -31 6 -15 15 -22
25 -18 20 8 31 -22 15 -41 -7 -8 -17 -12 -24 -9 -6 3 -3 -1 7 -9 9 -8 17 -28
17 -45 0 -27 3 -31 23 -29 20 2 22 -2 19 -33 -2 -19 -8 -36 -13 -38 -5 -2 -9
-8 -9 -13 0 -6 4 -8 9 -4 5 3 13 1 16 -5 5 -8 11 -7 21 1 12 10 14 -1 14 -69
0 -64 -3 -81 -16 -86 -29 -11 -44 -6 -44 14 0 29 -75 30 -83 1 -3 -14 -1 -18
9 -14 9 3 12 0 9 -9 -6 -14 8 -23 68 -42 9 -3 17 -12 17 -21 0 -10 10 -15 28
-15 29 0 70 -23 103 -58 16 -17 31 -22 74 -22 l55 0 0 -39 c0 -22 -4 -43 -10
-46 -5 -3 -10 -24 -10 -46 0 -21 5 -39 10 -39 6 0 10 -4 10 -10 0 -5 -9 -10
-19 -10 -11 0 -21 -6 -24 -12 -4 -15 -138 -18 -149 -4 -7 11 -121 -10 -151
-27 -35 -21 -67 -54 -67 -69 0 -31 -50 -60 -109 -63 -31 -2 -82 -7 -113 -11
-79 -9 -188 3 -188 22 0 7 -9 19 -20 26 -25 16 -25 26 -3 58 10 14 19 40 20
58 2 40 -28 110 -45 104 -6 -2 -12 3 -12 12 0 10 -9 16 -22 16 -25 -1 -110
-29 -145 -48 -12 -7 -35 -12 -52 -12 -16 0 -33 -4 -36 -10 -3 -5 -30 -10 -59
-10 -36 0 -61 -6 -77 -18 -13 -10 -44 -24 -69 -32 -25 -7 -56 -24 -70 -36 -17
-16 -33 -21 -51 -17 -22 4 -28 -1 -42 -29 -22 -47 -43 -63 -112 -87 -66 -24
-251 -55 -266 -45 -10 6 -8 39 8 169 4 33 7 98 7 145 -5 305 -4 333 15 389 26
79 67 155 124 231 27 35 52 71 54 80 7 19 134 150 148 151 5 0 33 28 60 61 95
115 270 275 318 290 20 6 37 15 37 20 0 13 27 9 40 -7z m1598 -1546 c-33 -21
-70 -1 -48 26 10 12 15 12 37 -2 18 -12 21 -18 11 -24z m159 -19 c-3 -10 1
-25 9 -31 11 -9 11 -15 3 -25 -25 -30 -55 -7 -38 28 6 10 5 19 -1 23 -17 11
-11 25 11 25 16 0 20 -5 16 -20z m-53 -39 c3 -5 -3 -11 -14 -14 -20 -5 -26 3
-13 16 9 10 21 9 27 -2z m156 -49 c13 -48 13 -95 0 -87 -5 3 -10 21 -10 38 0
18 -7 45 -15 61 -19 35 -19 37 0 30 8 -3 19 -22 25 -42z m-140 7 c0 -5 -4 -9
-10 -9 -5 0 -10 7 -10 16 0 8 5 12 10 9 6 -3 10 -10 10 -16z m-89 -292 c-12
-94 -25 -165 -35 -187 -9 -22 -86 -54 -86 -36 0 2 15 29 34 60 37 62 58 134
78 276 l13 95 3 -63 c2 -34 -2 -99 -7 -145z m-1241 123 c0 -5 -7 -10 -16 -10
-8 0 -12 5 -9 10 3 6 10 10 16 10 5 0 9 -4 9 -10z m-717 -86 c-3 -16 -21 -15
-37 1 -23 23 -9 40 17 22 12 -8 21 -18 20 -23z m1111 -259 c3 -9 18 -15 38
-15 18 0 40 -5 48 -11 11 -7 1 -8 -35 -3 -28 3 -59 15 -70 25 -16 16 -17 19
-3 19 9 0 18 -7 22 -15z m236 -45 c0 -12 -8 -12 -35 0 -18 8 -17 9 8 9 15 1
27 -3 27 -9z m476 -65 c-2 -14 -16 -22 -16 -10 0 3 0 10 0 15 0 6 4 10 9 10 5
0 8 -7 7 -15z m-77 -45 c-9 -5 -15 -19 -13 -32 1 -13 3 -27 3 -31 1 -5 18 -7
39 -6 48 4 64 -6 56 -36 -3 -12 -1 -26 5 -30 18 -10 3 -24 -20 -18 -20 6 -21
3 -16 -33 3 -21 9 -54 13 -73 8 -39 -9 -56 -62 -60 -8 0 -13 -5 -10 -10 6 -9
-36 -31 -59 -31 -8 0 -15 -9 -15 -21 0 -29 -18 -59 -35 -59 -8 0 -15 -7 -15
-15 0 -12 -14 -15 -65 -15 -63 0 -66 1 -104 40 -21 22 -44 40 -50 40 -6 0 -11
8 -11 18 0 10 -9 28 -20 40 -11 12 -20 24 -20 28 0 4 -11 17 -25 30 -29 27
-32 41 -7 47 12 3 8 7 -14 12 -23 5 -37 18 -53 47 -11 22 -21 46 -21 54 0 15
-34 37 -44 27 -3 -3 -6 -1 -6 5 0 18 60 15 66 -3 8 -19 21 -19 57 0 15 8 33
12 40 10 7 -3 52 -6 102 -9 75 -3 91 -1 101 12 12 16 13 16 19 1 6 -15 10 -14
32 7 15 14 38 24 54 24 19 0 34 8 45 25 11 16 25 25 43 25 21 -1 23 -2 10 -10z
m48 -56 c-3 -3 -12 -4 -19 -1 -8 3 -5 6 6 6 11 1 17 -2 13 -5z m455 -446 c-7
-7 -12 -8 -12 -2 0 6 3 14 7 17 3 4 9 5 12 2 2 -3 -1 -11 -7 -17z m-222 -138
c0 -5 -5 -10 -11 -10 -5 0 -7 5 -4 10 3 6 8 10 11 10 2 0 4 -4 4 -10z m-416
-132 c4 -20 0 -52 -10 -83 -23 -70 -22 -66 -49 -110 -14 -22 -28 -46 -31 -52
-4 -7 -14 -13 -24 -13 -13 0 -19 10 -22 35 -2 20 -2 38 1 41 4 3 6 9 7 12 2
21 25 62 34 62 6 0 15 12 21 28 19 52 51 112 59 112 4 0 10 -15 14 -32z m-725
-47 c9 -6 11 -18 7 -35 -5 -21 -12 -26 -37 -26 -17 0 -39 -5 -50 -10 -15 -8
-21 -7 -25 4 -3 8 -16 17 -30 20 -26 7 -31 20 -13 32 7 4 37 10 68 14 31 4 58
8 61 9 3 0 11 -3 19 -8z m-201 -17 c44 -12 16 -29 -49 -30 -59 -1 -78 6 -79
29 0 8 95 9 128 1z m275 0 c9 -9 -4 -35 -14 -28 -5 3 -9 12 -9 20 0 14 12 19
23 8z m1097 -1110 c0 -3 -9 -17 -20 -31 l-20 -26 0 25 c0 14 3 28 7 31 8 9 33
9 33 1z m-285 -25 c11 -17 2 -18 -19 -3 -17 12 -17 14 -4 14 9 0 20 -5 23 -11z
m-2195 -169 c0 -5 -5 -10 -11 -10 -5 0 -7 5 -4 10 3 6 8 10 11 10 2 0 4 -4 4
-10z m2210 -61 c0 -10 -4 -19 -10 -19 -5 0 -10 12 -10 26 0 14 4 23 10 19 6
-3 10 -15 10 -26z m635 -2 c95 -32 104 -36 60 -31 -59 8 -132 34 -147 52 -11
14 -10 15 7 8 11 -5 47 -17 80 -29z m-2795 -67 c0 -25 -15 -40 -40 -40 -38 0
-45 15 -21 39 19 19 61 19 61 1z m1471 7 c-1 -12 -15 -9 -19 4 -3 6 1 10 8 8
6 -3 11 -8 11 -12z m757 -67 c14 -39 8 -38 -12 2 -18 36 -19 41 -7 34 5 -3 14
-19 19 -36z m-2046 -35 c6 -14 17 -25 25 -25 7 0 13 -4 13 -10 0 -5 -7 -10
-15 -10 -8 0 -15 5 -15 11 0 6 -7 9 -15 5 -16 -6 -40 28 -30 44 11 17 25 11
37 -15z m8 -66 c0 -5 4 -8 9 -4 11 6 61 -55 61 -74 0 -22 -31 -7 -48 24 -9 16
-23 35 -29 43 -16 16 -16 22 -3 22 6 0 10 -5 10 -11z m1200 -54 c0 -9 -6 -12
-16 -8 -13 5 -13 7 -2 14 17 11 18 11 18 -6z m-1265 -26 c4 -5 4 -22 0 -37 -7
-25 -8 -25 -15 -7 -17 41 -4 76 15 44z m-965 -7 c0 -5 10 -14 23 -20 17 -8 18
-11 5 -11 -9 -1 -20 4 -23 9 -13 21 -23 9 -12 -15 7 -14 18 -25 25 -25 6 0 12
-10 12 -23 0 -27 -25 -40 -122 -61 -16 -4 -27 -12 -25 -18 1 -7 -8 -14 -19
-16 -15 -2 -23 4 -28 20 -10 39 -7 48 19 48 17 0 23 4 19 15 -6 15 51 75 72
75 6 0 17 7 24 15 14 16 30 20 30 7z m80 -2 c0 -5 -9 -10 -21 -10 -11 0 -17 5
-14 10 3 6 13 10 21 10 8 0 14 -4 14 -10z m2130 -44 c0 -3 -4 -8 -10 -11 -5
-3 -10 -1 -10 4 0 6 5 11 10 11 6 0 10 -2 10 -4z m-965 -16 c3 -5 2 -10 -4
-10 -5 0 -13 5 -16 10 -3 6 -2 10 4 10 5 0 13 -4 16 -10z m1343 -80 c4 -43
-24 -117 -50 -131 -11 -6 -31 -8 -45 -4 -24 6 -25 9 -18 52 6 44 22 78 53 115
22 26 56 8 60 -32z m-1404 -102 c30 -60 33 -83 10 -92 -23 -9 -22 -9 -44 34
-24 46 -27 110 -6 110 8 0 26 -23 40 -52z m3501 32 c-3 -5 -16 -10 -28 -10
-18 0 -19 2 -7 10 20 13 43 13 35 0z m-157 -7 c-15 -2 -42 -2 -60 0 -18 2 -6
4 27 4 33 0 48 -2 33 -4z m-1659 -29 c30 -38 29 -102 -1 -113 -31 -11 -46 -4
-63 30 -20 38 -19 65 5 89 26 26 34 25 59 -6z m-1049 -35 c46 -5 89 -14 95
-18 5 -5 26 -12 45 -16 19 -4 42 -12 50 -19 28 -21 60 -36 76 -36 10 0 14 -5
10 -15 -3 -10 1 -18 12 -21 9 -3 28 -10 41 -15 24 -10 24 -10 4 -24 -11 -8
-32 -17 -47 -21 -15 -3 -35 -18 -44 -33 -9 -14 -31 -44 -49 -67 -18 -23 -33
-50 -33 -61 0 -29 -30 -39 -37 -13 -3 11 -9 20 -14 20 -5 0 -9 7 -9 15 0 8 -6
15 -13 15 -7 0 -21 16 -32 36 -10 19 -28 45 -39 58 -59 63 -76 90 -76 117 0
19 -5 29 -15 29 -8 0 -15 4 -15 9 0 5 -3 23 -6 40 -4 17 -2 31 3 31 4 0 47 -5
93 -11z m-585 -271 c4 -62 11 -71 47 -64 38 8 78 -2 78 -19 0 -14 -12 -19 -73
-30 -37 -6 -38 -7 -32 -38 4 -18 14 -47 21 -66 8 -18 14 -52 14 -75 -1 -40 -1
-41 -15 -16 -7 14 -26 63 -40 108 -27 79 -29 82 -59 84 -17 0 -35 2 -41 3 -5
2 -24 3 -41 4 -34 1 -73 25 -61 37 4 5 44 7 88 5 l79 -2 -6 58 c-3 32 -8 64
-10 71 -2 8 -1 24 2 38 6 23 7 23 26 -14 11 -20 21 -58 23 -84z m1864 101 c46
-16 38 -27 -16 -21 -55 5 -63 10 -43 22 19 12 21 12 59 -1z m711 -4 c23 -28
-3 -41 -42 -22 -25 12 -51 15 -98 11 -36 -3 -61 -2 -57 2 6 7 38 11 168 23 9
0 22 -6 29 -14z m-2951 -53 c54 -27 47 -37 -23 -39 -36 -2 -84 -10 -108 -19
-109 -40 -158 -48 -212 -34 -28 7 -55 15 -60 18 -13 8 52 30 89 31 30 1 82 16
160 45 54 20 113 20 154 -2z m576 -112 c-3 -5 -13 -10 -21 -10 -8 0 -12 5 -9
10 3 6 13 10 21 10 8 0 12 -4 9 -10z m703 -19 c10 -6 10 -10 -3 -21 -18 -15
-42 0 -31 19 8 13 16 14 34 2z m440 -12 c-18 -12 -95 -12 -82 0 12 12 44 18
72 13 18 -4 20 -7 10 -13z m-385 -6 c-7 -2 -19 -2 -25 0 -7 3 -2 5 12 5 14 0
19 -2 13 -5z m97 -12 c0 -5 -14 -9 -31 -9 -20 1 -26 4 -17 9 18 12 48 11 48 0z
m-569 -26 c-1 -17 -131 -27 -131 -10 0 6 23 10 50 11 28 1 53 4 57 8 9 9 25 3
24 -9z m359 -169 c0 -14 -5 -28 -11 -32 -17 -10 -32 12 -24 35 9 29 35 27 35
-3z m2729 -345 c17 -31 -12 -48 -44 -27 -14 9 -25 20 -25 25 0 27 55 29 69 2z
m-264 -1 c-16 -4 -43 -8 -60 -8 -29 0 -29 0 -5 8 14 4 41 8 60 8 l35 0 -30 -8z
m-2561 -51 c16 -19 36 -75 36 -103 0 -69 -37 -110 -99 -108 -44 1 -69 18 -79
55 -25 94 23 173 100 164 21 -2 40 -6 42 -8z m2003 -235 c8 -23 -20 -47 -46
-39 -20 6 -28 34 -14 48 12 13 54 7 60 -9z m-197 -55 c-111 -45 -397 -106
-414 -89 -20 20 19 38 134 64 128 28 158 32 245 34 50 1 56 -1 35 -9z m-819
-86 c6 -7 8 -20 5 -29 -5 -12 -15 -14 -44 -10 -20 4 -83 2 -139 -3 -104 -9
-183 -5 -183 10 0 12 39 32 80 40 61 13 269 7 281 -8z m369 -2 c0 -9 -140 -35
-148 -26 -9 9 2 13 56 18 30 3 56 8 60 11 8 9 32 7 32 -3z m-3120 -32 c0 -13
-7 -19 -24 -19 -32 0 -44 20 -22 36 23 16 46 7 46 -17z m2954 6 c-4 -8 -15
-15 -26 -15 -17 0 -18 3 -8 15 7 8 19 15 26 15 8 0 11 -6 8 -15z m-1902 -20
c38 -7 56 -31 39 -48 -7 -7 -15 -7 -23 1 -9 7 -83 7 -248 0 -234 -9 -448 0
-510 24 -51 19 6 27 194 27 104 1 192 3 195 6 7 8 304 -1 353 -10z m923 -95
c0 -23 -5 -26 -55 -32 -112 -13 -445 -9 -488 6 -22 8 -43 11 -47 8 -4 -4 -6
-1 -3 7 6 22 27 24 263 28 121 2 231 5 245 7 14 2 39 3 55 2 25 -1 30 -5 30
-26z m1966 -610 c1 -41 1 -93 -1 -115 -3 -32 -5 -27 -10 30 -11 107 -11 180
-1 170 6 -6 11 -44 12 -85z"/>
<path d="M2932 6658 c3 -35 23 -49 30 -21 6 28 -2 53 -18 53 -11 0 -14 -9 -12
-32z"/>
<path d="M1141 5627 c-6 -16 -11 -61 -11 -102 0 -43 -5 -77 -11 -81 -14 -8 -7
-54 18 -122 l20 -53 5 38 c3 21 5 78 4 126 -1 63 1 84 9 74 5 -7 16 -12 23 -9
10 3 10 7 0 20 -7 9 -8 13 -2 9 17 -10 33 15 24 38 -5 11 -22 36 -38 55 l-30
35 -11 -28z"/>
<path d="M1250 5123 c0 -10 5 -25 10 -33 7 -11 10 -7 10 18 0 17 -4 32 -10 32
-5 0 -10 -8 -10 -17z"/>
<path d="M1841 4537 c-22 -48 -25 -76 -15 -144 7 -52 20 -55 39 -10 13 31 17
34 52 32 46 -3 58 2 42 21 -8 10 -8 14 0 14 14 0 14 45 0 71 -7 14 -19 19 -37
17 -21 -2 -27 1 -27 17 0 39 -33 28 -54 -18z"/>
<path d="M2940 4536 c0 -2 7 -9 15 -16 13 -11 14 -10 9 4 -5 14 -24 23 -24 12z"/>
<path d="M1091 3054 c-12 -15 -21 -36 -21 -48 0 -20 1 -20 19 4 17 21 34 70
25 70 -1 0 -12 -12 -23 -26z"/>
<path d="M937 3013 c-10 -9 -9 -23 1 -23 5 0 9 7 9 15 0 17 -1 18 -10 8z"/>
<path d="M2430 3006 c0 -20 40 -32 51 -15 11 19 2 29 -27 29 -14 0 -24 -6 -24
-14z"/>
<path d="M893 2973 c-13 -9 -23 -22 -23 -29 0 -20 19 -17 27 4 4 9 11 20 17
24 6 4 8 9 6 11 -3 3 -15 -2 -27 -10z"/>
<path d="M680 2871 c0 -9 23 -21 41 -21 4 0 6 7 3 15 -7 16 -44 21 -44 6z"/>
<path d="M658 2798 c9 -9 15 -9 24 0 9 9 7 12 -12 12 -19 0 -21 -3 -12 -12z"/>
<path d="M883 2713 c-10 -10 -28 -17 -39 -15 -18 3 -21 -1 -17 -22 6 -27 33
-37 33 -12 0 8 6 16 14 19 14 6 42 47 31 47 -3 0 -13 -8 -22 -17z"/>
<path d="M525 2700 c-3 -5 1 -10 9 -10 9 0 16 5 16 10 0 6 -4 10 -9 10 -6 0
-13 -4 -16 -10z"/>
<path d="M2488 2703 c7 -3 16 -2 19 1 4 3 -2 6 -13 5 -11 0 -14 -3 -6 -6z"/>
<path d="M822 2618 c-14 -14 -16 -28 -3 -28 5 0 11 9 14 20 6 23 5 24 -11 8z"/>
<path d="M775 2310 c3 -5 8 -10 11 -10 2 0 4 5 4 10 0 6 -5 10 -11 10 -5 0 -7
-4 -4 -10z"/>
</g>
</svg>
